<svg width="40" height="40" viewBox="0 0 40 40" fill="none" xmlns="http://www.w3.org/2000/svg">
<path d="M0 20C0 8.95431 8.95431 0 20 0C31.0457 0 40 8.95431 40 20C40 31.0457 31.0457 40 20 40C8.95431 40 0 31.0457 0 20Z" fill="#C6980F"/>
<path d="M21.6004 23.2V21.3616L22.2852 20.884C22.9843 20.3975 23.5098 19.7006 23.7853 18.8947C24.0608 18.0889 24.0719 17.2161 23.817 16.4035C23.5621 15.5908 23.0544 14.8808 22.368 14.3767C21.6815 13.8726 20.8521 13.6008 20.0004 13.6008C19.1487 13.6008 18.3193 13.8726 17.6328 14.3767C16.9464 14.8808 16.4387 15.5908 16.1838 16.4035C15.9289 17.2161 15.94 18.0889 16.2155 18.8947C16.491 19.7006 17.0165 20.3975 17.7156 20.884L18.4004 21.3616V23.2H19.2004V16.8C19.2004 16.5878 19.2847 16.3843 19.4347 16.2343C19.5847 16.0843 19.7882 16 20.0004 16C20.2126 16 20.416 16.0843 20.5661 16.2343C20.7161 16.3843 20.8004 16.5878 20.8004 16.8V23.2H21.6004ZM21.6004 24.8H18.4004V26.4H21.6004V24.8ZM14.4004 17.6C14.4005 16.6371 14.6488 15.6905 15.1214 14.8516C15.5941 14.0126 16.2751 13.3098 17.0986 12.8108C17.9222 12.3119 18.8605 12.0337 19.8229 12.0032C20.7853 11.9726 21.7393 12.1908 22.5928 12.6366C23.4464 13.0823 24.1705 13.7406 24.6954 14.5479C25.2202 15.3552 25.528 16.2842 25.5891 17.2452C25.6502 18.2061 25.4624 19.1666 25.044 20.0338C24.6256 20.9011 23.9906 21.6458 23.2004 22.196V26.4C23.2004 26.8243 23.0318 27.2313 22.7318 27.5314C22.4317 27.8314 22.0247 28 21.6004 28H18.4004C17.976 28 17.5691 27.8314 17.269 27.5314C16.969 27.2313 16.8004 26.8243 16.8004 26.4V22.196C16.0591 21.6805 15.4536 20.9932 15.0357 20.1929C14.6178 19.3925 14.3998 18.5029 14.4004 17.6V17.6Z" fill="#21272A"/>
</svg>
