<?xml version="1.0" encoding="UTF-8" standalone="no"?>
<!-- Created with Inkscape (http://www.inkscape.org/) -->

<svg
   width="92.889397mm"
   height="90.187325mm"
   viewBox="0 0 92.889399 90.187327"
   version="1.1"
   id="svg1"
   xml:space="preserve"
   inkscape:version="1.4 (86a8ad7, 2024-10-11)"
   sodipodi:docname="iskonek.svg"
   xmlns:inkscape="http://www.inkscape.org/namespaces/inkscape"
   xmlns:sodipodi="http://sodipodi.sourceforge.net/DTD/sodipodi-0.dtd"
   xmlns="http://www.w3.org/2000/svg"
   xmlns:svg="http://www.w3.org/2000/svg"><sodipodi:namedview
     id="namedview1"
     pagecolor="#505050"
     bordercolor="#eeeeee"
     borderopacity="1"
     inkscape:showpageshadow="0"
     inkscape:pageopacity="0"
     inkscape:pagecheckerboard="0"
     inkscape:deskcolor="#505050"
     inkscape:document-units="mm"
     inkscape:zoom="1"
     inkscape:cx="167.5"
     inkscape:cy="199.5"
     inkscape:window-width="1920"
     inkscape:window-height="1009"
     inkscape:window-x="-8"
     inkscape:window-y="-8"
     inkscape:window-maximized="1"
     inkscape:current-layer="layer1" /><defs
     id="defs1" /><g
     inkscape:label="Layer 1"
     inkscape:groupmode="layer"
     id="layer1"
     transform="translate(-61.38333,-59.002052)"><path
       id="path4"
       style="display:inline;fill:#c6980f;fill-opacity:1;fill-rule:nonzero"
       inkscape:label="gold"
       d="m 61.38333,59.002079 v 29.335677 29.335154 l 7.570597,7.37578 7.570597,7.37526 3.343465,0.13229 3.343466,0.13229 0.06718,7.9375 c 0.03682,4.36562 0.124637,8.09263 0.195337,8.28219 h -5.17e-4 c 0.08879,0.23808 0.559219,0.31988 1.520838,0.26458 l 1.392163,-0.0801 0.06925,-9.85573 0.06925,-9.85573 -4.30258,-0.0119 -4.30258,-0.0119 -6.679179,-6.53655 -6.679179,-6.53655 0.0646,-26.987499 0.06459,-26.9875 32.411459,-0.06046 32.411463,-0.06046 9.86761,9.717753 9.86762,9.717753 -0.0119,17.480587 -0.0119,17.480066 1.41231,0.44493 c 0.77677,0.24486 1.4911,0.44545 1.5875,0.44545 0.0964,0 0.17431,-8.36414 0.17364,-18.586971 l -10e-4,-18.586979 -0.75706,-0.79375 c -0.41641,-0.436563 -5.2303,-5.228828 -10.69753,-10.649479 l -9.94048,-9.855729 H 96.193091 Z m 70.66649,58.170091 c -0.61244,0.005 -1.20956,0.25028 -1.59112,0.73535 -1.77199,2.25272 1.15454,4.78412 3.1843,2.75436 l 0.78187,-0.78135 7.20162,2.34301 c 3.96088,1.28864 7.32069,2.35175 7.46621,2.36265 0.58613,0.044 5.53817,-2.31795 5.15938,-2.46084 -2.33971,-0.88261 -8.8476,-3.06286 -9.14259,-3.06286 -0.28687,0 -0.38241,0.36297 -0.38241,1.45521 0,0.80037 -0.0333,1.45521 -0.0739,1.45521 -0.0406,0 -2.37352,-0.7691 -5.18469,-1.70894 -3.73048,-1.24718 -5.27968,-1.89044 -5.73454,-2.38125 -0.44378,-0.47885 -1.07169,-0.71517 -1.68413,-0.71055 z m 20.36775,10.05106 -0.6041,0.18707 c -0.3323,0.10278 -1.04344,0.40823 -1.58027,0.67903 -0.82196,0.41463 -0.98903,0.6455 -1.05833,1.46089 -0.0453,0.53254 -0.26075,1.05853 -0.47904,1.16893 -0.21828,0.1104 -1.88516,0.91389 -3.70417,1.78593 -4.43978,2.12844 -7.40109,4.28052 -11.4763,8.33903 l -3.40703,3.39307 -0.95343,-0.87953 c -0.52432,-0.48369 -1.01509,-0.93902 -1.09089,-1.01182 -3.07783,-2.95506 -12.15659,-8.73125 -13.72319,-8.73125 -0.26585,0 -1.04047,0.43445 -1.72186,0.96531 l -1.2392,0.96532 3.11402,1.52342 c 4.93915,2.41682 8.61017,5.06451 13.69633,9.87743 h 5.1e-4 c 1.30955,1.23919 2.45175,2.16959 2.53835,2.06758 0.0866,-0.10201 0.8521,-1.06928 1.70119,-2.14923 4.96278,-6.31206 11.00753,-10.78964 17.51624,-12.97543 l 2.3213,-0.7798 0.0749,-2.94297 z" /><path
       id="path9"
       style="display:inline;fill:#682a43;fill-opacity:1"
       inkscape:label="maroon"
       d="m 77.575106,65.927238 c -5.203197,0.0099 -8.505631,0.03324 -8.651151,0.06821 -0.525034,0.126196 -0.528767,0.317328 -0.460437,24.460522 l 0.06925,24.3334 5.606893,5.44411 5.606893,5.4436 h 5.23844 5.237923 v 9.818 c 0,7.9814 0.06469,9.79271 0.346232,9.68468 0.190479,-0.0731 2.839619,-1.89332 5.886979,-4.04523 6.155992,-4.34709 8.744212,-6.14252 14.462682,-10.0335 2.13868,-1.45521 3.8935,-2.72688 3.8995,-2.82618 0.006,-0.0993 -0.25703,-0.26223 -0.58446,-0.36173 -1.62683,-0.49438 -8.92969,-3.3881 -8.92969,-3.53829 0,-0.44795 25.9909,-12.77452 26.9875,-12.79922 0.3638,-0.009 3.39001,0.83813 6.72517,1.88257 3.33516,1.04444 6.10002,1.86333 6.14382,1.81953 0.0438,-0.0438 0.0909,-7.09805 0.10438,-15.67604 l 0.0243,-15.596469 -9.60768,-0.132292 -9.60768,-0.132291 -0.1323,-8.863542 -0.13229,-8.863542 -28.17812,-0.07286 c -7.748985,-0.01998 -14.852943,-0.02333 -20.05614,-0.01344 z m 52.338404,2.335258 c -0.17226,0 -0.26768,2.073589 -0.26768,5.820833 v 5.820833 h 6.10764 c 3.35911,0 6.06777,-0.0893 6.01927,-0.198437 -0.18913,-0.425543 -11.60735,-11.443229 -11.85923,-11.443229 z M 80.674142,89.48859 c 4.69817,-0.07888 7.708809,0.287324 10.671183,1.298629 1.66937,0.569895 4.543144,1.837783 5.168677,2.279964 0.304679,0.215373 2.268703,7.469727 2.074809,7.663617 -0.04452,0.0445 -2.034504,0.68947 -4.421953,1.43298 -2.387449,0.7435 -4.519414,1.39701 -4.737695,1.45211 -0.500784,0.12651 -5.712619,-1.67759 -7.7618,-2.68666 -0.924823,-0.4554 -2.065262,-1.330077 -2.842721,-2.18074 -1.570918,-1.71884 -2.316574,-3.895424 -2.422074,-7.070369 l -0.07028,-2.116667 z m 48.839398,0.07286 0.0842,1.178223 c 0.11768,1.650914 -0.39949,4.394862 -1.1312,6.004801 -1.23271,2.71227 -3.25184,4.088736 -8.8346,6.023406 -2.92807,1.0147 -3.13333,1.05355 -3.74447,0.70848 -0.21828,-0.12325 -2.24234,-0.79674 -4.49792,-1.49706 -2.25557,-0.70032 -4.13371,-1.29367 -4.17391,-1.31827 -0.0401,-0.0246 0.21965,-1.222542 0.57723,-2.661852 0.35758,-1.43931 0.75176,-3.091851 0.87592,-3.672127 0.25522,-1.192732 1.03185,-1.75017 4.04368,-2.903182 3.89372,-1.490622 6.08173,-1.83872 11.64166,-1.85105 z" /></g></svg>
